<svg width="30" height="30" viewBox="0 0 30 30" fill="none" xmlns="http://www.w3.org/2000/svg">
<path d="M10 3C6.14062 3 3 6.14062 3 10V20C3 23.8594 6.14062 27 10 27H20C23.8594 27 27 23.8594 27 20V10C27 6.14062 23.8594 3 20 3H10ZM22 7C22.5508 7 23 7.44922 23 8C23 8.55078 22.5508 9 22 9C21.4492 9 21 8.55078 21 8C21 7.44922 21.4492 7 22 7ZM15 9C18.3086 9 21 11.6914 21 15C21 18.3086 18.3086 21 15 21C11.6914 21 9 18.3086 9 15C9 11.6914 11.6914 9 15 9ZM15 11C12.7891 11 11 12.7891 11 15C11 17.2109 12.7891 19 15 19C17.2109 19 19 17.2109 19 15C19 12.7891 17.2109 11 15 11Z" fill="#FFB84F"/>
</svg>
