<svg width="30" height="30" viewBox="0 0 30 30" fill="none" xmlns="http://www.w3.org/2000/svg">
<path d="M28 6.9375C27.043 7.36328 26.0156 7.64844 24.9375 7.77734C26.0391 7.11719 26.8828 6.07031 27.2812 4.82422C26.25 5.4375 25.1094 5.88281 23.8945 6.12109C22.9219 5.08594 21.5352 4.4375 20 4.4375C17.0547 4.4375 14.6641 6.82422 14.6641 9.76953C14.6641 10.1875 14.7148 10.5977 14.8047 10.9844C10.3711 10.7617 6.44141 8.64062 3.80859 5.41016C3.35156 6.19922 3.08984 7.11328 3.08984 8.09375C3.08984 9.94531 4.02734 11.5781 5.46094 12.5312C4.58594 12.5039 3.76172 12.2656 3.04297 11.8672C3.04297 11.8906 3.04297 11.9102 3.04297 11.9336C3.04297 14.5195 4.88281 16.6758 7.32422 17.1641C6.875 17.2852 6.40234 17.3516 5.91797 17.3516C5.57422 17.3516 5.23828 17.3164 4.91406 17.2539C5.59375 19.375 7.5625 20.918 9.89844 20.9609C8.07031 22.3906 5.77344 23.2422 3.27344 23.2422C2.84375 23.2422 2.41797 23.2188 2 23.168C4.35938 24.6836 7.16406 25.5664 10.1758 25.5664C19.9883 25.5664 25.3516 17.4375 25.3516 10.3867C25.3516 10.1562 25.3477 9.92578 25.3359 9.69922C26.3789 8.94531 27.2852 8.00781 28 6.9375Z" fill="#FFB84F"/>
</svg>
